:SAMPLES-PER-SECOND 30
:FULLY-SPECIFIED
:DEGREES
93
root  15.4357 16.0843 -1.08953 -110.297 82.0756 -85.4333
RightUpLeg  -81.6178 -7.90394 3.65781
RightLeg  105.411 10.3096 3.3292
RightFoot  -9.95935 -0.116002 4.45966
RightToes  1.80444e-009 -3.18055e-015 8.94531e-016
Spine  60.8 -2.59528 0.432738
Spine1  10.5378 -1.96529 3.01228
HEad  -28.8005 -0.899506 8.20797
LeftShoulder1  0 -2.69403e-036 -1.28585e-037
LeftArm  -3.4388 -53.5701 -77.1215
LeftForeArm  -130.401 -50.4431 167.77
LeftHand  0.334316 4.8448 13.8054
RightShoulder  -2.48481e-017 0 -8.08114e-019
RightArm  -1.88375 39.8003 69.5082
RightForeArm  -86.2005 46.2488 -154.404
RightHand  4.19188 -16.514 -27.2258
LeftUpLeg  -49.9148 -1.90525 31.3057
LeftLeg  143.956 -0.401651 -10.8056
LeftFoot  -28.8056 -1.79723 -12.6011
LeftToes  -1.10049e-010 -1.44524e-010 4.8374e-011
94
root  16.5057 14.9666 -0.541983 -134.002 83.4587 -109.079
RightUpLeg  -85.6809 -8.17803 1.10785
RightLeg  111.621 10.4961 2.25272
RightFoot  -9.33367 -0.0846895 2.61961
RightToes  1.80444e-009 -3.18055e-015 8.94531e-016
Spine  60.0251 -2.72893 -0.469592
Spine1  10.3383 -2.51141 3.58459
HEad  -31.12 -2.08297 8.44765
LeftShoulder1  0 -2.69403e-036 -1.28585e-037
LeftArm  -2.6326 -54.6539 -78.4211
LeftForeArm  -129.351 -50.3937 167.731
LeftHand  0.299715 4.70124 13.6847
RightShoulder  -2.48481e-017 0 -8.08114e-019
RightArm  -3.50273 40.8064 68.618
RightForeArm  -85.3844 46.3379 -154.234
RightHand  4.22087 -16.5774 -27.2871
LeftUpLeg  -48.8027 -4.09552 36.3463
LeftLeg  146.777 6.64433 -14.0922
LeftFoot  -29.6174 -1.62143 -10.7299
LeftToes  -1.10049e-010 -1.44524e-010 4.8374e-011
95
root  17.548 14.2072 -0.0416074 -156.309 83.1976 -131.29
RightUpLeg  -87.8424 -8.27881 -0.813218
RightLeg  116.568 10.7056 1.64288
RightFoot  -10.0683 -0.0383802 1.5507
RightToes  1.80444e-009 -3.18055e-015 8.94531e-016
Spine  59.589 -3.21552 -0.603055
Spine1  10.1962 -2.808 4.17406
HEad  -33.4734 -2.63743 8.58388
LeftShoulder1  0 -2.69403e-036 -1.28585e-037
LeftArm  -1.87069 -55.4196 -79.6646
LeftForeArm  -128.179 -50.2264 167.776
LeftHand  0.25714 4.54071 13.7057
RightShoulder  -2.48481e-017 0 -8.08114e-019
RightArm  -4.4147 42.0113 68.4341
RightForeArm  -84.6685 46.4836 -153.993
RightHand  4.29953 -16.7794 -27.3437
LeftUpLeg  -46.9615 -7.19176 42.4092
LeftLeg  147.526 13.8702 -17.6403
LeftFoot  -30.4085 -1.37402 -8.5755
LeftToes  -1.10049e-010 -1.44524e-010 4.8374e-011
96
root  18.441 13.9471 0.421618 -168.685 81.8181 -143.633
RightUpLeg  -87.5226 -9.1117 -1.31283
RightLeg  119.607 11.0196 1.07364
RightFoot  -11.2988 -0.0120818 1.02381
RightToes  1.80444e-009 -3.18055e-015 8.94531e-016
Spine  59.4373 -3.87677 -0.0972148
Spine1  10.4162 -3.16608 4.96076
HEad  -34.8489 -2.50014 8.87324
LeftShoulder1  0 -2.69403e-036 -1.28585e-037
LeftArm  -0.98054 -55.7152 -80.7318
LeftForeArm  -127.29 -50.06 167.84
LeftHand  0.21051 4.38494 13.909
RightShoulder  -2.48481e-017 0 -8.08114e-019
RightArm  -4.4638 42.7479 68.9745
RightForeArm  -84.3579 46.3869 -154.104
RightHand  4.31113 -16.8454 -27.2258
LeftUpLeg  -45.6908 -10.7896 47.3577
LeftLeg  146.069 19.6742 -21.5706
LeftFoot  -31.0018 -1.2889 -7.71764
LeftToes  -1.10049e-010 -1.44524e-010 4.8374e-011
97
root  19.2501 14.1034 0.895166 -176.595 81.7382 -153.082
RightUpLeg  -87.9421 -9.03853 -0.88751
RightLeg  121.401 11.5644 0.249125
RightFoot  -13.0906 0.00497636 0.381209
RightToes  1.80444e-009 -3.18055e-015 8.94531e-016
Spine  58.2189 -3.44311 -0.392629
Spine1  10.5436 -3.07419 5.9929
HEad  -34.8983 -2.00738 9.43342
LeftShoulder1  0 -2.69403e-036 -1.28585e-037
LeftArm  -0.44785 -55.7007 -80.9747
LeftForeArm  -127.203 -49.9676 167.905
LeftHand  0.194672 4.3387 14.0362
RightShoulder  -2.48481e-017 0 -8.08114e-019
RightArm  -4.10574 42.6266 69.7302
RightForeArm  -84.4711 46.1579 -154.418
RightHand  4.24302 -16.7353 -26.9467
LeftUpLeg  -44.0727 -11.9417 48.8546
LeftLeg  143.45 22.3012 -24.8977
LeftFoot  -31.4592 -1.4207 -8.3264
LeftToes  -1.10049e-010 -1.44524e-010 4.8374e-011
98
root  19.9888 14.6773 1.31804 178.055 82.4171 -160.288
RightUpLeg  -87.2449 -8.55262 0.127667
RightLeg  122.034 12.0397 -0.442657
RightFoot  -16.3089 -0.0084404 -0.453321
RightToes  1.80444e-009 -3.18055e-015 8.94531e-016
Spine  57.6449 -2.96452 -0.561909
Spine1  9.56443 -2.83065 6.23392
HEad  -33.9874 -1.47077 9.7666
LeftShoulder1  0 -2.69403e-036 -1.28585e-037
LeftArm  -0.950252 -55.5663 -79.9423
LeftForeArm  -127.814 -49.9195 167.987
LeftHand  0.219623 4.43121 14.0194
RightShoulder  -2.48481e-017 0 -8.08114e-019
RightArm  -3.75019 41.9085 70.33
RightForeArm  -84.8095 46.1185 -154.491
RightHand  4.17683 -16.6166 -26.7108
LeftUpLeg  -41.5877 -11.7656 47.4074
LeftLeg  140.847 20.6811 -26.1136
LeftFoot  -30.779 -1.57759 -9.6871
LeftToes  -1.10049e-010 -1.44524e-010 4.8374e-011
99
root  20.6144 15.6968 1.60879 -177.632 82.7156 -155.458
RightUpLeg  -81.3949 -8.68906 1.87893
RightLeg  120.919 12.235 -0.820119
RightFoot  -20.4989 -0.0650553 -1.09149
RightToes  1.80444e-009 -3.18055e-015 8.94531e-016
Spine  60.0925 -3.45417 0.818272
Spine1  7.8947 -2.75245 5.91793
HEad  -32.9239 -0.935406 8.91422
LeftShoulder1  0 -2.69403e-036 -1.28585e-037
LeftArm  -2.71681 -55.6044 -77.9749
LeftForeArm  -128.25 -49.8966 168.036
LeftHand  0.236247 4.5083 14.1609
RightShoulder  -2.48481e-017 0 -8.08114e-019
RightArm  -3.31611 41.528 70.6476
RightForeArm  -85.2121 46.2951 -154.28
RightHand  4.14767 -16.5892 -26.5172
LeftUpLeg  -37.8863 -13.263 45.266
LeftLeg  137.943 16.556 -25.8903
LeftFoot  -28.3302 -1.57924 -11.3344
LeftToes  -1.10049e-010 -1.44524e-010 4.8374e-011
100
root  21.3989 16.7163 1.8643 168.518 83.9441 -170.931
RightUpLeg  -78.2823 -7.42381 1.15847
RightLeg  119.976 12.3539 -1.08403
RightFoot  -23.6124 -0.108534 -1.2727
RightToes  1.80444e-009 -3.18055e-015 8.94531e-016
Spine  60.2507 -3.04127 -0.0727056
Spine1  6.04468 -2.98798 5.59541
HEad  -31.5349 -0.0276195 7.84681
LeftShoulder1  0 -2.69403e-036 -1.28585e-037
LeftArm  -4.47486 -55.6299 -75.3851
LeftForeArm  -128.377 -49.9834 167.978
LeftHand  0.199874 4.43368 14.7428
RightShoulder  -2.48481e-017 0 -8.08114e-019
RightArm  -2.88031 41.2332 71.7528
RightForeArm  -85.533 46.4248 -154.126
RightHand  4.09602 -16.5643 -26.089
LeftUpLeg  -35.6561 -12.8292 40.404
LeftLeg  134.849 13.2685 -26.0119
LeftFoot  -23.8989 -1.34963 -13.5965
LeftToes  -1.10049e-010 -1.44524e-010 4.8374e-011
101
root  22.2016 17.6963 2.09053 143.159 84.5475 161.408
RightUpLeg  -76.4129 -5.5739 -0.506275
RightLeg  118.976 12.5503 -1.50448
RightFoot  -26.1755 -0.147796 -1.36835
RightToes  1.80444e-009 -3.18055e-015 8.94531e-016
Spine  59.5578 -2.53735 -1.75558
Spine1  4.50615 -3.47752 4.95897
HEad  -29.9402 0.813916 7.46251
LeftShoulder1  0 -2.69403e-036 -1.28585e-037
LeftArm  -5.42016 -55.5412 -72.9204
LeftForeArm  -128.599 -50.1667 167.853
LeftHand  0.132904 4.28342 15.6173
RightShoulder  -2.48481e-017 0 -8.08114e-019
RightArm  -2.44262 40.6347 73.4351
RightForeArm  -85.9653 46.3919 -154.198
RightHand  3.99268 -16.4457 -25.4581
LeftUpLeg  -36.2441 -12.2095 35.3031
LeftLeg  132.032 10.5716 -26.0353
LeftFoot  -13.8353 -0.107037 -17.5133
LeftToes  -1.10049e-010 -1.44524e-010 4.8374e-011
102
root  22.9446 18.587 2.23706 121.276 84.6827 138.252
RightUpLeg  -73.7571 -3.72005 -1.64519
RightLeg  117.777 12.6583 -1.82298
RightFoot  -28.4661 -0.20932 -1.62287
RightToes  1.80444e-009 -3.18055e-015 8.94531e-016
Spine  59.4998 -2.27995 -2.5884
Spine1  3.78472 -3.70228 4.55461
HEad  -28.7504 0.836316 7.69591
LeftShoulder1  0 -2.69403e-036 -1.28585e-037
LeftArm  -5.87155 -55.3885 -71.2535
LeftForeArm  -129.023 -50.3589 167.734
LeftHand  0.0839646 4.18646 16.3309
RightShoulder  -2.48481e-017 0 -8.08114e-019
RightArm  -1.85317 39.8084 74.6373
RightForeArm  -86.4915 46.3258 -154.32
RightHand  3.89252 -16.2604 -25.0756
LeftUpLeg  -38.4988 -12.3254 31.8249
LeftLeg  129.895 7.52858 -24.8534
LeftFoot  3.03148 3.15412 -21.2693
LeftToes  -1.10049e-010 -1.44524e-010 4.8374e-011
103
root  23.7536 19.2861 2.32197 101.762 84.4041 118.029
RightUpLeg  -71.0842 -2.2026 -2.67367
RightLeg  117.156 12.5223 -1.65066
RightFoot  -30.1485 -0.315893 -2.1735
RightToes  1.80444e-009 -3.18055e-015 8.94531e-016
Spine  59.175 -2.23906 -2.73054
Spine1  3.88258 -3.61431 3.7561
HEad  -28.0403 0.102725 8.24583
LeftShoulder1  0 -2.69403e-036 -1.28585e-037
LeftArm  -6.11354 -55.0521 -70.4329
LeftForeArm  -129.409 -50.5378 167.622
LeftHand  0.0557554 4.11874 16.6124
RightShoulder  -2.48481e-017 0 -8.08114e-019
RightArm  -1.21713 38.8482 75.2831
RightForeArm  -86.7135 46.3199 -154.342
RightHand  3.84585 -16.1127 -25.1105
LeftUpLeg  -41.0655 -12.1179 29.0273
LeftLeg  128.658 5.10029 -23.2736
LeftFoot  17.081 6.63285 -23.7626
LeftToes  -1.10049e-010 -1.44524e-010 4.8374e-011
